<?xml version="1.0" encoding="UTF-8" standalone="no"?>
<!-- Created with Inkscape (http://www.inkscape.org/) -->

<svg
   xmlns:dc="http://purl.org/dc/elements/1.1/"
   xmlns:cc="http://creativecommons.org/ns#"
   xmlns:rdf="http://www.w3.org/1999/02/22-rdf-syntax-ns#"
   xmlns:svg="http://www.w3.org/2000/svg"
   xmlns="http://www.w3.org/2000/svg"
   xmlns:sodipodi="http://sodipodi.sourceforge.net/DTD/sodipodi-0.dtd"
   xmlns:inkscape="http://www.inkscape.org/namespaces/inkscape"
   id="svg2"
   version="1.1"
   inkscape:version="0.91 r13725"
   width="1080"
   height="1080"
   viewBox="0 0 1080 1080"
   sodipodi:docname="Fingerprint.svg"
   inkscape:export-filename="Fingerprint.png"
   inkscape:export-xdpi="90"
   inkscape:export-ydpi="90">
  <metadata
     id="metadata8">
    <rdf:RDF>
      <cc:Work
         rdf:about="">
        <dc:format>image/svg+xml</dc:format>
        <dc:type
           rdf:resource="http://purl.org/dc/dcmitype/StillImage" />
        <dc:title />
        <cc:license
           rdf:resource="http://creativecommons.org/publicdomain/zero/1.0/" />
      </cc:Work>
      <cc:License
         rdf:about="http://creativecommons.org/publicdomain/zero/1.0/">
        <cc:permits
           rdf:resource="http://creativecommons.org/ns#Reproduction" />
        <cc:permits
           rdf:resource="http://creativecommons.org/ns#Distribution" />
        <cc:permits
           rdf:resource="http://creativecommons.org/ns#DerivativeWorks" />
      </cc:License>
    </rdf:RDF>
  </metadata>
  <defs
     id="defs6" />
  <sodipodi:namedview
     pagecolor="#ffffff"
     bordercolor="#666666"
     borderopacity="1"
     objecttolerance="10"
     gridtolerance="10"
     guidetolerance="10"
     inkscape:pageopacity="0"
     inkscape:pageshadow="2"
     inkscape:window-width="1366"
     inkscape:window-height="715"
     id="namedview4"
     showgrid="false"
     inkscape:zoom="0.52685185"
     inkscape:cx="540"
     inkscape:cy="540"
     inkscape:window-x="-8"
     inkscape:window-y="-8"
     inkscape:window-maximized="1"
     inkscape:current-layer="svg2" />
  <path
     d="m 570.35801,1050.4179 c -5.57846,-2.0222 -12.38014,-7.6481 -14.72401,-12.1784 -1.06966,-2.0677 -3.93667,-9.4939 -6.37121,-16.5028 -11.88039,-34.20423 -27.37936,-52.84588 -46.06503,-55.40582 -14.15489,-1.93932 -39.86837,15.49585 -69.45165,47.09202 -17.60945,18.8076 -23.85933,21.9203 -37.46348,18.6582 -8.28855,-1.9876 -17.73901,-10.631 -19.78098,-18.0918 -4.32021,-15.78488 -0.72833,-22.71878 25.15246,-48.55564 28.35107,-28.30287 48.39862,-42.68688 71.42304,-51.24534 9.39297,-3.49153 11.36875,-3.77022 27.00418,-3.80929 15.78588,-0.039 17.57312,0.20884 27.81782,3.86405 14.97153,5.34182 23.34642,10.57212 35.64109,22.25889 16.32751,15.52014 29.09962,36.81327 38.98654,64.99683 5.30725,15.129 6.35092,21.2432 4.83939,28.3526 -3.44152,16.1871 -21.4625,26.2019 -37.00816,20.5665 z m 116.54006,-35.632 C 679.4404,1011.3973 657.65499,993.56167 643.11992,978.94484 613.88944,949.55 594.98913,917.94185 586.02643,883.464 c -9.21733,-35.45731 -4.61556,-80.06102 11.27558,-109.29149 9.58121,-17.62384 26.46045,-22.9081 41.90393,-13.11856 12.8406,8.13961 16.15477,23.12871 8.60752,38.93 -7.31322,15.31128 -9.59411,25.92653 -9.48324,44.13511 0.076,12.4408 0.72687,18.57401 2.78433,26.22996 3.36025,12.50355 11.90619,30.38948 20.47381,42.84986 8.3534,12.14901 29.41493,34.03139 44.17883,45.90062 17.98849,14.46175 21.28286,19.75381 20.22609,32.49137 -1.56541,18.86933 -21.97105,30.97573 -39.09521,23.19503 z m -401.12492,-10.0368 c -9.92375,-2.538 -18.32322,-10.41253 -20.78699,-19.48789 -1.95927,-7.21699 -0.56859,-17.49963 3.12031,-23.07137 1.88543,-2.84782 12.69058,-11.84905 27.51685,-22.92298 110.45782,-82.50266 208.93951,-175.38679 263.08892,-248.13535 20.58918,-27.66123 37.59038,-57.37048 46.11432,-80.58396 12.01936,-32.7326 10.97338,-57.2331 -3.75303,-87.90692 -13.1344,-27.35811 -36.08794,-42.61834 -64.104,-42.61834 -24.66921,0 -49.11029,12.89145 -65.4434,34.51824 -3.79861,5.02976 -12.61326,20.96511 -21.32455,38.55093 -43.98143,88.78752 -83.77778,135.90411 -170.05168,201.33147 -29.02941,22.01499 -102.59329,74.26283 -107.36836,76.2571 -6.94939,2.90229 -19.79849,1.67662 -26.09657,-2.48929 -13.18099,-8.71884 -16.4914,-27.74234 -7.03277,-40.41432 1.59397,-2.13552 14.59842,-12.22659 28.89876,-22.42459 89.28713,-63.6734 122.75264,-90.11659 151.05409,-119.35722 31.9752,-33.03629 51.71141,-62.3844 79.88183,-118.78577 16.7159,-33.46768 23.96538,-44.98803 37.27269,-59.23095 28.91609,-30.94908 73.71762,-48.58723 112.39565,-44.24964 30.32635,3.40099 53.5632,14.29906 74.75539,35.06027 23.56725,23.08797 38.30596,52.56067 44.29969,88.58527 2.51711,15.12868 2.00527,35.41185 -1.32559,52.53369 -8.88543,45.67468 -42.90422,104.79082 -95.71715,166.33259 -48.0909,56.03928 -118.9569,122.21891 -197.92169,184.83306 -28.29787,22.43846 -61.27244,47.16047 -67.46893,50.58357 -5.69755,3.1474 -14.47981,4.5051 -20.00379,3.0924 z m 519.5273,-60.0377 c -17.58222,-6.69219 -35.52133,-16.28756 -48.1205,-25.73914 -38.95615,-29.22386 -65.26124,-79.28771 -75.75427,-144.17522 -6.30684,-39.00071 -4.38134,-65.89944 9.88152,-138.03803 14.03492,-70.98587 15.85195,-105.95295 7.20365,-138.62556 -9.57761,-36.18304 -34.48065,-68.44529 -71.29217,-92.36005 -27.86341,-18.1015 -57.61923,-26.92819 -90.7499,-26.91981 -33.29012,0.009 -62.28288,8.87174 -91.12338,27.8571 -36.64857,24.12538 -62.51078,56.2936 -89.56801,111.40749 -7.75694,15.80043 -17.44294,33.78668 -21.52445,39.96946 -28.2548,42.80119 -80.04586,91.38731 -140.80244,132.08932 -18.23608,12.21671 -23.3935,14.61867 -31.38877,14.61867 -23.33356,0 -36.79108,-28.35592 -21.64225,-45.60167 2.11113,-2.40336 10.09357,-8.51058 17.73878,-13.5716 55.36886,-36.65341 103.38908,-80.92325 128.8219,-118.76086 3.23227,-4.80883 8.77373,-14.92609 12.31431,-22.48282 23.1584,-49.42738 42.49877,-79.24614 69.57089,-107.26368 43.30132,-44.81349 93.39946,-69.41599 151.9698,-74.63022 55.61805,-4.95143 115.96483,15.22757 162.65877,54.39057 56.17788,47.11728 81.80179,108.86272 76.51614,184.37947 -1.66548,23.79541 -4.64045,43.72807 -12.66995,84.89053 -9.24302,47.3833 -11.18211,60.9819 -11.93358,83.68605 -0.58311,17.62246 -0.2934,22.78146 1.99958,35.5978 8.21794,45.93304 21.52649,76.5547 42.58792,97.99082 11.70685,11.91499 23.87895,19.52208 44.99677,28.12091 17.48564,7.11986 21.28326,9.72137 25.12636,17.21224 5.68723,11.08543 3.73854,24.13046 -4.85498,32.50037 -10.23421,9.96798 -20.51951,10.8579 -39.96174,3.45786 z M 199.40379,934.17255 c -6.04782,-2.81475 -10.61359,-7.44271 -14.29165,-14.48623 -2.56897,-4.91964 -2.03935,-17.2795 0.99015,-23.10734 3.28617,-6.32157 6.01571,-8.75351 25.94385,-23.11524 98.58577,-71.04831 188.17064,-155.4877 243.82078,-229.81648 21.92366,-29.28232 36.49112,-52.52348 50.46246,-80.50897 8.08398,-16.19272 10.10945,-19.28388 14.7368,-22.49086 4.36144,-3.02272 6.94134,-3.80705 13.7961,-4.1942 5.53178,-0.31243 9.91831,0.14644 12.75472,1.33425 14.25876,5.97127 20.97456,21.84997 15.63693,36.97175 -2.74075,7.76462 -16.24963,34.10147 -24.73029,48.21406 -56.7615,94.45635 -160.71823,199.87473 -290.36124,294.44386 -11.7512,8.57205 -23.71197,16.52378 -26.57951,17.6706 -7.23788,2.89479 -14.65015,2.58892 -22.1791,-0.9152 z m 668.38127,-62.64993 c -6.83267,-3.4033 -28.2218,-24.55323 -42.52454,-42.04896 -17.71537,-21.67019 -32.54345,-47.35467 -39.49788,-68.41612 -6.02372,-18.24301 -7.63832,-29.12413 -7.59903,-51.21087 0.043,-24.15261 0.83024,-31.20152 10.60339,-94.92746 9.93281,-64.76672 11.51981,-79.18357 11.5502,-104.91982 0.029,-24.80976 -1.52752,-34.41494 -8.70468,-53.70896 -4.54639,-12.2218 -14.46029,-32.87452 -21.58477,-44.96564 -20.39004,-34.60411 -53.8788,-69.59342 -86.25371,-90.11848 -74.88354,-47.47467 -182.74001,-54.00979 -259.29415,-15.71089 -23.04256,11.52786 -43.69728,26.52679 -64.81248,47.06522 -24.39441,23.72803 -42.49664,47.67706 -72.10228,95.3904 -15.5338,25.03472 -27.96292,41.99274 -43.18873,58.92573 -24.50924,27.25728 -62.59373,56.32442 -76.98105,58.75405 -11.28441,1.90562 -24.99329,-5.54375 -29.84332,-16.21679 -1.28631,-2.83068 -2.31415,-7.97695 -2.32948,-11.6635 -0.048,-11.54352 4.9566,-19.6214 16.17879,-26.11395 11.16336,-6.4585 29.35554,-21.03603 41.76582,-33.46726 19.86728,-19.90082 30.63421,-34.45825 56.12487,-75.88361 44.35625,-72.08426 92.79915,-119.36152 151.5772,-147.92998 39.38985,-19.14502 77.37541,-28.30497 124.2043,-29.95099 82.21697,-2.8899 157.84848,21.43705 218.68181,70.33914 47.7776,38.40703 90.03132,101.19349 106.61535,158.42393 5.67353,19.57885 6.47828,26.86722 6.413,58.08062 -0.07,33.26663 -0.92751,41.53544 -11.21,108.04244 -11.91978,77.09694 -13.27716,96.39603 -8.17005,116.16123 6.15318,23.81428 23.53196,50.70344 51.80304,80.1516 16.65381,17.3473 19.49722,21.85246 19.49722,30.89205 0,21.14634 -21.86328,34.51842 -40.91884,25.02687 z m 23.12939,-107.96164 c -6.05411,-1.82212 -11.77883,-6.11531 -15.41149,-11.55782 -5.21358,-7.8112 -5.37693,-16.11146 -0.75557,-38.40935 17.84874,-86.11989 19.21461,-168.05085 3.89389,-233.57152 -2.98277,-12.75618 -5.1379,-19.60065 -10.70846,-34.0096 -6.70961,-17.35524 -5.17529,-27.79636 5.49818,-37.41513 14.22517,-12.81934 35.41666,-8.00032 44.60039,10.14223 7.0685,13.96391 15.7353,43.96421 20.59068,71.27487 10.64838,59.89575 9.74366,133.05356 -2.54091,205.46799 -4.1688,24.57428 -9.48804,48.75298 -11.79412,53.61044 -5.55477,11.70054 -20.72114,18.27556 -33.37259,14.46789 z M 167.32694,414.54209 c -12.19153,-3.27194 -19.81926,-12.98862 -20.64531,-26.29926 -0.57891,-9.32828 1.48917,-13.52567 21.55077,-43.73982 37.0165,-55.74936 81.00396,-106.84224 115.9549,-134.6854 57.04413,-45.44336 122.03019,-71.98743 199.64909,-81.54822 21.59597,-2.66011 71.58728,-3.66641 92.09638,-1.85387 84.26543,7.44719 162.03627,39.69377 234.05192,97.04634 30.94695,24.64585 79.2076,75.49734 93.6216,98.64752 8.07348,12.96688 6.4119,27.09229 -4.29506,36.51272 -12.10053,10.64642 -27.28009,10.31005 -38.09252,-0.84408 -3.09274,-3.19053 -10.40296,-11.97966 -16.24493,-19.53143 -12.88958,-16.66214 -48.22437,-52.43255 -66.37251,-67.19066 -76.85273,-62.49711 -159.89483,-92.19836 -249.1541,-89.11367 -75.21474,2.59934 -134.17217,20.18866 -187.44156,55.92122 -43.21746,28.98982 -83.06158,72.63053 -126.43722,138.48495 -21.53033,32.6881 -21.60551,32.78458 -27.89113,35.79755 -7.60814,3.64691 -13.22535,4.30831 -20.35032,2.39611 z m 33.47271,-193.55791 c -12.51266,-5.46374 -19.8599,-19.30623 -17.00004,-32.02877 1.80485,-8.02916 9.13239,-17.69627 26.99692,-35.61663 51.81161,-51.97353 119.98829,-90.072377 196.81362,-109.984411 68.79576,-17.830875 149.90297,-20.228662 226.17948,-6.686581 49.18856,8.732907 104.06815,27.971156 148.09332,51.914669 21.04234,11.444063 51.10776,31.140953 70.20991,45.996913 16.12657,12.5418 20.39344,18.83187 20.34495,29.9919 -0.083,19.08086 -19.63018,32.9021 -37.46092,26.48749 -2.40545,-0.86539 -11.62757,-7.05273 -20.49351,-13.74968 C 775.67239,147.99306 737.90037,127.05989 697.21185,112.31753 607.70557,79.887362 500.53749,75.57115 411.91883,100.82729 c -67.91815,19.35652 -131.42582,57.82725 -172.11329,104.26022 -7.57764,8.64768 -13.05597,13.73778 -16.43833,15.27338 -5.95089,2.70172 -17.10236,3.00972 -22.56756,0.62329 z"
     id="path4138"
     inkscape:connector-curvature="0" />
</svg>
